<?xml version="1.0" standalone="no"?>
<!DOCTYPE svg PUBLIC "-//W3C//DTD SVG 20010904//EN"
 "http://www.w3.org/TR/2001/REC-SVG-20010904/DTD/svg10.dtd">
<svg version="1.0" xmlns="http://www.w3.org/2000/svg"
 width="632.000000pt" height="632.000000pt" viewBox="0 0 632.000000 632.000000"
 preserveAspectRatio="xMidYMid meet">
<metadata>
Created by potrace 1.11, written by Peter Selinger 2001-2013
</metadata>
<g transform="translate(0.000000,632.000000) scale(0.100000,-0.100000)"
fill="#000000" stroke="none">
<path d="M1647 5244 c-2 -2 -19 -6 -38 -8 -267 -37 -575 -170 -788 -341 -53
-43 -177 -172 -206 -215 -16 -25 -33 -47 -36 -50 -24 -19 -107 -218 -130 -310
-24 -95 -33 -360 -17 -475 13 -89 26 -161 39 -206 7 -24 13 -49 15 -56 6 -31
47 -149 55 -157 5 -6 9 -16 9 -24 0 -37 187 -376 242 -438 10 -11 18 -24 18
-28 0 -15 221 -297 278 -353 34 -34 74 -43 89 -20 4 6 8 77 9 157 1 134 6 208
19 270 3 14 8 39 10 55 3 17 8 38 11 47 5 18 11 43 21 98 7 39 7 148 -1 195
-10 61 -48 181 -87 270 -11 26 -39 129 -37 135 1 3 -3 14 -9 25 -6 11 -14 40
-17 65 -3 25 -9 56 -12 70 -11 39 -13 294 -4 337 5 21 11 52 13 68 13 84 120
326 157 355 4 3 11 12 16 21 32 58 148 177 232 239 37 27 72 54 79 60 39 32
389 190 423 190 14 0 12 16 -2 19 -27 4 -347 9 -351 5z"/>
<path d="M3669 5245 c-2 -2 -38 -6 -79 -10 -41 -3 -82 -8 -90 -10 -8 -2 -31
-7 -50 -10 -31 -5 -72 -14 -145 -31 -11 -3 -31 -7 -45 -10 -157 -31 -472 -161
-667 -276 -125 -73 -292 -190 -301 -210 -2 -5 -7 -8 -11 -8 -21 0 -251 -224
-339 -330 -109 -131 -152 -187 -152 -199 0 -5 -3 -11 -7 -13 -10 -4 -53 -65
-53 -74 0 -4 -10 -21 -23 -38 -13 -17 -39 -60 -58 -96 -18 -36 -37 -68 -42
-71 -5 -3 -8 -8 -6 -10 1 -2 -13 -35 -31 -74 -18 -38 -31 -70 -30 -70 2 0 -6
-18 -17 -40 -41 -80 -116 -315 -149 -470 -29 -132 -31 -146 -40 -275 -19 -246
-5 -451 48 -715 31 -158 32 -161 40 -185 3 -8 25 -76 48 -150 24 -74 52 -155
63 -180 32 -74 122 -265 127 -270 3 -3 16 -25 29 -50 13 -25 30 -52 37 -61 8
-8 14 -19 14 -23 0 -15 167 -230 222 -286 82 -84 226 -200 248 -200 4 0 -13
56 -36 124 -22 68 -44 134 -47 147 -3 13 -15 58 -27 99 -45 162 -90 403 -107
580 -14 143 -6 539 13 631 2 13 7 40 10 59 2 19 9 55 15 80 5 25 11 54 13 65
8 41 28 112 54 190 14 44 27 83 28 88 1 4 3 9 4 12 1 3 3 8 5 13 1 4 7 20 13
35 7 16 12 31 12 34 0 29 225 441 256 468 6 6 21 27 33 48 13 21 28 43 35 50
6 6 27 32 46 57 119 153 289 329 456 470 78 66 258 200 268 200 3 0 24 13 48
29 58 39 105 65 218 121 82 41 265 118 295 124 6 2 42 12 81 24 136 42 339 83
427 86 15 0 27 3 27 6 0 9 398 14 480 6 25 -3 74 -7 110 -11 112 -10 339 -53
485 -90 171 -44 162 -42 204 -54 19 -6 36 -9 38 -8 6 7 -87 125 -142 180 -81
81 -185 158 -330 244 -130 77 -327 156 -610 243 -31 10 -162 38 -205 45 -14 2
-50 8 -80 14 -89 16 -131 22 -195 28 -77 6 -432 13 -436 8z"/>
<path d="M5032 3811 c-7 -19 -10 -36 -8 -39 17 -17 -105 -192 -133 -192 -6 0
-11 -4 -11 -8 0 -13 -147 -83 -202 -97 -16 -4 -28 -12 -28 -18 0 -6 3 -8 6 -5
9 9 113 -21 163 -48 89 -46 150 -121 192 -236 10 -29 19 -61 19 -71 0 -31 17
-10 25 30 13 68 61 158 112 209 55 55 114 87 208 115 33 10 54 18 48 20 -24 3
-28 4 -100 28 -40 13 -73 27 -73 32 0 5 -6 9 -13 9 -20 0 -101 82 -130 131
-25 42 -51 111 -59 154 -3 16 -6 13 -16 -14z"/>
<path d="M4220 3060 c-8 -14 -23 -41 -35 -62 -45 -80 -75 -106 -157 -132 -31
-9 -19 -30 38 -66 63 -40 110 -92 146 -164 l25 -49 5 40 c11 83 71 140 200
189 64 24 76 35 45 40 -29 5 -105 37 -144 59 -49 30 -80 69 -97 127 l-12 43
-14 -25z"/>
<path d="M5830 2975 c-6 -149 -10 -214 -14 -234 -3 -12 -8 -43 -11 -68 -2 -24
-7 -49 -10 -54 -4 -5 -8 -19 -10 -31 -24 -121 -120 -319 -206 -424 -43 -52
-163 -166 -203 -193 -154 -103 -320 -183 -431 -207 -5 -1 -30 -7 -55 -14 -52
-14 -51 -14 -150 -30 -41 -6 -86 -13 -100 -16 -69 -12 -205 -18 -385 -18 -207
0 -301 6 -445 29 -41 6 -151 27 -160 30 -3 1 -23 5 -45 9 -58 12 -167 41 -265
70 -113 35 -101 31 -175 59 -16 7 -32 12 -35 13 -12 2 -69 25 -132 53 -26 12
-50 21 -53 21 -4 0 -68 30 -143 67 -75 37 -139 67 -142 68 -3 0 -12 5 -20 10
-28 18 -95 56 -125 70 -16 8 -68 46 -115 85 -125 103 -184 124 -241 86 -24
-15 -66 -76 -53 -76 3 0 2 -6 -3 -12 -5 -7 -8 -40 -7 -73 2 -33 5 -128 8 -211
3 -83 9 -162 15 -176 17 -45 67 -84 167 -127 55 -24 141 -63 192 -87 52 -24
95 -44 97 -44 2 0 34 -14 72 -31 37 -17 83 -37 100 -45 18 -8 63 -26 100 -40
38 -13 77 -29 88 -34 45 -20 393 -119 475 -134 14 -2 32 -7 40 -10 8 -3 29 -7
45 -10 45 -7 87 -16 115 -22 14 -3 39 -8 55 -10 17 -3 53 -9 80 -14 73 -14
121 -20 295 -36 179 -17 494 -6 640 21 14 3 40 7 58 10 75 12 175 36 193 45
10 6 19 9 19 6 0 -4 134 40 230 75 56 21 257 126 291 151 135 104 238 206 307
310 75 110 153 302 168 413 4 22 9 58 13 80 14 78 4 279 -20 386 -6 26 -11 53
-13 60 -3 17 -34 117 -46 144 -40 98 -49 119 -50 110z"/>
</g>
</svg>
