<?xml version="1.0" encoding="utf-8"?>
<svg version="1.1" id="Calque_1" xmlns="http://www.w3.org/2000/svg" xmlns:xlink="http://www.w3.org/1999/xlink" x="0px" y="0px"
	 viewBox="0 0 39.2 58.2" style="enable-background:new 0 0 39.2 58.2;" xml:space="preserve">
<style type="text/css">
	.st0{fill:#FDFDFD;}
	.st1{fill:#293146;}
	.st2{fill:#FCFCFD;}
</style>
<g>
	<g>
		<path class="st0" d="M-5.4,25.7c0-10.3,0-20.6,0-31c0-1.2,0.3-1.5,1.5-1.5c15,0.1,30,0.1,44.9,0c1.2,0,1.5,0.3,1.5,1.5
			c0,20.6,0,41.3,0,61.9c0,1.2-0.3,1.5-1.5,1.5c-15-0.1-30-0.1-44.9,0c-1.2,0-1.5-0.3-1.5-1.5C-5.4,46.3-5.4,36-5.4,25.7z M2.6,14.3
			c0,7.7,0,15.1,0,22.6c0,2-0.6,4.4,0.3,5.9c0.9,1.5,3.6,1.3,5.5,1.7c1.6,0.3,2,1,1.9,2.5c0,2.2-0.9,5,0.3,6.6
			c1.3,1.7,4.3,1.2,6.5,2c0.2,0.1,0.5,0,1,0.1c0-2.3,0.1-4.7,0-7c-0.1-1.5,0.5-1.7,1.8-1.4c1.5,0.4,3.1,0.6,4.6,1.1
			c1.3,0.4,1.6,0,1.5-1.2c-0.1-1.8,0.1-3.7,0-5.5c-0.1-1.6,0.6-1.8,1.9-1.4c1.8,0.5,3.7,0.9,5.5,1.3c0.5-0.9,0.3-1.7,0.3-2.6
			c0-6.5,0-13,0-19.5c0-2.2,0.6-4.7-0.4-6.3c-0.9-1.5-3.8-1.3-5.8-1.7c-1.3-0.3-1.6-0.8-1.5-2c0.1-1.9,0-3.8,0-5.7
			c0-0.9-0.1-1.6-1.2-1.9c-2.2-0.5-4.3-1-6.7-1.5c0,2.4-0.1,4.5,0,6.7c0.2,2-0.7,2.2-2.3,1.7c-1-0.3-2.1-0.5-3.1-0.8
			C11,7.2,10,7.4,10.3,9.6c0.2,1.6,0,3.3,0,5c0,1.1-0.3,1.5-1.4,1.2C6.9,15.2,4.8,14.9,2.6,14.3z"/>
		<path class="st1" d="M2.6,14.3c2.2,0.5,4.3,0.9,6.3,1.4c1.2,0.3,1.5-0.1,1.4-1.2c0-1.7,0.1-3.3,0-5C10,7.4,11,7.2,12.8,7.8
			c1,0.3,2.1,0.5,3.1,0.8c1.5,0.5,2.4,0.3,2.3-1.7c-0.2-2.1,0-4.3,0-6.7c2.4,0.5,4.5,1.1,6.7,1.5C25.9,2,26,2.7,26,3.6
			c0,1.9,0,3.8,0,5.7c0,1.2,0.3,1.7,1.5,2c2,0.5,4.8,0.2,5.8,1.7c1,1.6,0.4,4.2,0.4,6.3c0,6.5,0,13,0,19.5c0,0.8,0.2,1.7-0.3,2.6
			c-1.8-0.4-3.7-0.8-5.5-1.3c-1.3-0.3-2-0.2-1.9,1.4c0.1,1.8,0,3.7,0,5.5c0,1.2-0.2,1.7-1.5,1.2c-1.5-0.5-3.1-0.7-4.6-1.1
			c-1.2-0.3-1.8-0.1-1.8,1.4c0.1,2.3,0,4.6,0,7c-0.5,0-0.8,0-1-0.1c-2.2-0.7-5.2-0.3-6.5-2c-1.3-1.6-0.4-4.3-0.3-6.6
			c0-1.5-0.3-2.2-1.9-2.5c-1.9-0.4-4.6-0.2-5.5-1.7c-0.9-1.5-0.3-3.9-0.3-5.9C2.6,29.5,2.6,22.1,2.6,14.3z M19.6,32.7
			c0-2.3,0-4.7,0-7c0-0.9-0.1-1.5-1.2-1.7c-2.7-0.5-5.3-1.2-8-1.9c-1.2-0.3-1.6,0.1-1.6,1.3c0.1,2.1,0,4.2,0,6.2
			c0,2.9-1,6.6,0.4,8.5c1.6,2.2,5.6,1.7,8.5,2.6c1.8,0.6,1.9-0.1,1.9-1.6C19.6,37.1,19.6,34.9,19.6,32.7z"/>
		<path class="st2" d="M19.6,32.7c0,2.2-0.1,4.3,0,6.5c0.1,1.4-0.1,2.2-1.9,1.6c-2.9-1-6.9-0.4-8.5-2.6c-1.4-1.9-0.4-5.6-0.4-8.5
			c0-2.1,0-4.2,0-6.2c0-1.2,0.4-1.6,1.6-1.3c2.6,0.7,5.3,1.4,8,1.9c1.1,0.2,1.3,0.8,1.2,1.7C19.6,28.1,19.6,30.4,19.6,32.7z"/>
	</g>
</g>
</svg>
