<svg enable-background="new 0 0 158 152.2" viewBox="0 0 158 152.2" xmlns="http://www.w3.org/2000/svg"><g fill="#070101"><path d="m55.5 135.2c-15.8-9.5-25.6-38-21.4-59 5.5-27.2 26.3-47.4 53.4-51.8 20-3.2 47.2 5.9 54.3 18.7-28.2-9.1-53.5-4.6-73.9 17-20.4 21.5-22.7 47-12.4 75.1z"/><path d="m145.7 80.3c8.1 16.8 1.5 34-14.5 40.9-17.7 7.7-35.3 5.2-53 .3-7.9-2.2-15.1-6-22.5-9.2-3-1.3-3.2-3.5-3-6.1.3-3.6-1.7-8.5 1.5-10.3 2.7-1.5 5.7 2.8 8.6 4.4 18 10.2 37.2 15.3 57.8 11.3 13.2-2.6 25.6-12 25.1-31.3z"/><path d="m50.7 24.2c-6.8 2.3-12.5 5-16.8 9.7-8.7 9.5-8.7 20.4-4.2 31.6 1.5 3.7 2.2 7 1.2 11-1 4.1-1.6 8.5-1.2 12.8.1.8.1 1.8-1 2-.5.1-1.2-.4-1.6-.9-8.8-10.4-16.3-21.3-16.6-35.8-.3-12.8 6.4-21 17-26.4 6.9-3.5 14.3-5.3 23.2-4z"/><path d="m136.1 68.3c-5.9 1-9.2 4.1-10.1 10.2-1.1-6-4.1-9.3-10.2-10 5.2-1.6 9.8-3.6 10.2-10.3.9 6.1 4.2 9.2 10.1 10.1z"/><path d="m105.9 77.8c.4 4 3.3 4.9 7.1 6-3.6 1.5-7.2 2.2-7 6.7-1.1-2.7-2.6-4.8-5.1-6 0 0-1.5-1.1-.2-1.2 3.1-.5 3.7-3.1 5.2-5.5z"/></g></svg>