<svg enable-background="new 0 0 600 610.5" viewBox="0 0 600 610.5" xmlns="http://www.w3.org/2000/svg"><path d="m300.3 572.6c-66.2-.9-124.4-22.9-173.8-67.2-46.2-41.4-74.9-92.9-84-154.2-11.9-80.7 9.6-152.2 63.1-213.9 6.6-7.6 13.7-14.5 21.2-21.2 1.9-1.7 3.9-3.4 6.6-2.2 2.8 1.2 3.5 3.8 3.6 6.6 3.5 62.8 27.5 117.4 67.6 165.1 50.2 59.7 114.6 96.4 190.3 113.5 27.7 6.3 55.9 8.5 84.3 7.1 19.3-.9 38.4-3.5 57.2-8.1 3-.7 5.9-1.5 8.3 1.3 2.3 2.8.7 5.4-.3 7.9-31.3 75.2-85.5 126.1-162.5 152.5-23.8 8.1-52.3 13.1-81.6 12.8z" fill="#f8d75e"/><path d="m431.9 211.5c-13-5.9-26.7-10.1-40.1-15.1-40.3-15.1-81.3-28.4-121.2-44.8-23-9.5-45.4-20.1-64.7-36.1-5.4-4.5-10.2-9.6-13.4-16-4.2-8.2-3-15.8 3.3-22.5 6.1-6.5 13.8-10.4 22-13.4 21.5-8 43.9-11.7 66.7-13.2 37.5-2.4 73.8 2.9 109 16.2 31.5 11.9 59.6 29.3 84.3 52.2 35.9 33.2 60.8 73.2 74.3 120.1 3.2 11 6.2 22 7 33.5-6.3-11.9-17.3-17.8-28.9-23.1-22.6-10.3-46-18.9-69.3-27.6-9.6-3.6-19-7.8-29-10.2z" fill="#f8d75e"/><path d="m431.9 211.5c10 2.5 19.4 6.6 29 10.2 23.3 8.6 46.6 17.3 69.3 27.6 11.5 5.2 22.6 11.2 28.9 23.1-.2.8-.2 1.5.5 2.1 3.5 25.9 3.5 51.7-.8 78.3-11.7-9.1-22.9-17.6-33.9-26.4-23-18.3-44.9-37.7-62.8-61.2-12.5-16.5-23-34.2-30.2-53.7z" fill="#ee7731"/><path d="m559.6 274.4c-.7-.6-.7-1.3-.5-2.1.7.6.8 1.3.5 2.1z" fill="#f8d75e"/></svg>