<svg enable-background="new 0 0 400 209" viewBox="0 0 400 209" xmlns="http://www.w3.org/2000/svg"><path d="m250 95.5c-4.8-.1-8.9-1.7-12.4-5-3.3-3.1-5.4-7-6-11.4-.8-5.9.7-11.3 4.5-15.9.4-.5.8-.9 1.4-1.5.3 4.7 2 9 5.1 12.8 3.6 4.5 8.4 7.4 14.2 8.8 1.6.4 3.4.6 5.1.6h1.2c1.5-.1 2.9-.3 4.3-.6-2.3 5.6-6.2 9.4-11.6 11.4-1.7.6-3.7.9-5.6.9z" fill="#fff"/><path d="m237.2 62.8c.5 4.3 2.2 8.4 5.1 12 3.7 4.6 8.6 7.6 14.5 9 1.7.4 3.4.6 5.2.6h1.2c1.2-.1 2.3-.2 3.4-.4-2.2 5-5.9 8.4-10.9 10.2-1.7.6-3.6.9-5.4.9h-.2c-4.6-.1-8.7-1.7-12.1-4.8-3.3-3-5.2-6.8-5.8-11.1-.8-5.8.7-11 4.4-15.5.1-.4.3-.7.6-.9m.5-1.8c-.1 0-.2.1-.4.2-.5.5-1.1 1-1.5 1.6-3.9 4.7-5.5 10.1-4.6 16.3.7 4.7 2.8 8.6 6.2 11.7 3.6 3.4 7.9 5 12.7 5.1h.2c2.1 0 4.1-.4 5.8-1 5.6-2 9.6-5.9 11.9-11.6.1-.2.2-.4 0-.6-.1-.1-.2-.2-.3-.2s-.2 0-.3.1c-1.4.3-2.8.5-4.2.6h-1.2c-1.7 0-3.3-.2-5-.6-5.5-1.3-10.3-4.1-13.9-8.6-2.9-3.6-4.7-7.8-5-12.6 0-.2-.1-.4-.3-.5 0 .2-.1.1-.1.1z"/><path d="m268.2 71.6c-.4-.3-.8-.5-1.1-.6-1.7-.8-3.4-1.5-5.1-2.1l-.5-.2c-.5-.2-1.1-.4-1.6-.6-.6-.3-1.3-.5-1.9-.8-.3-.1-.6-.2-1-.4-1.1-.4-2.2-.8-3.3-1.2-1.8-.7-3.7-1.4-5.6-2.2-1.6-.7-3.2-1.5-4.6-2.7-.4-.3-.7-.7-.9-1.1s-.2-.8.2-1.2c.4-.5 1-.7 1.4-.9h.3c1.9 0 8.8 1.4 14.4 2.4l2.5.5c.5.4.9.8 1.3 1.2 2.6 2.5 4.4 5.5 5.3 8.9.1.4.2.7.2 1zm-2.7-11.2c-1.3-.2-2.7-.5-3.7-.7-.4-.3-.8-.6-1.1-.8 1.6.4 3.4 1 4.8 1.5z" fill="#fff"/><path d="m244.5 58.2c1.9 0 8.7 1.3 14.3 2.4l2.4.5c.4.3.8.7 1.2 1.1 2.4 2.3 4.1 5.1 5.1 8.4 0 0-.1 0-.1-.1-1.7-.8-3.4-1.5-5.1-2.1-.2-.1-.4-.1-.5-.2-.5-.2-1-.4-1.6-.6-.7-.3-1.3-.5-2-.8-.3-.1-.6-.2-.9-.4-1.1-.4-2.2-.8-3.3-1.2-1.8-.7-3.7-1.4-5.5-2.2-1.5-.7-3.1-1.4-4.5-2.6-.3-.3-.6-.6-.7-.9s-.1-.4.1-.6c.3-.3.6-.5 1.2-.7zm0-1c-.2 0-.4 0-.5.1-.6.2-1.2.5-1.6 1-.5.5-.5 1.1-.2 1.7.2.5.6.9 1 1.2 1.4 1.2 3.1 2 4.7 2.7 2.9 1.3 5.9 2.3 8.9 3.4 1 .4 2 .7 2.9 1.2.7.2 1.4.5 2.1.8 1.7.7 3.4 1.3 5.1 2.1.8.4 1.7.9 2.1 1.8-.1-.9-.3-1.7-.5-2.5-1-3.6-2.8-6.6-5.4-9.1-.5-.5-1-.9-1.5-1.3-6.2-1.3-14.8-3.1-17.1-3.1zm12.1.1c-.1 0 0 0 .2.1 1.7.7 3.3 1.6 4.7 2.7 3.2.6 5.7 1.1 6.3 1.1h.1c2.5-.1-10.5-3.9-11.3-3.9z"/><path d="m268.5 78.2c-.6-.4-1.1-.9-1.6-1.3-1.5-1.2-3.2-2.7-4.5-4.6-.7-1-1.3-2-1.8-3 .2.1 1.1.4 1.1.4 1.7.6 3.4 1.3 5 2.1.7.3 1.4.7 1.8 1.4 0 .1 0 .2.1.2.2 1.7.2 3.2 0 4.8z" fill="#fff"/><path d="m261.6 70.3c1.6.6 3.3 1.3 4.9 2 .7.4 1.2.7 1.6 1.1 0 .1 0 .1.1.2.2 1.3.2 2.5.1 3.7-.4-.3-.7-.6-1-.9-1.4-1.2-3.1-2.7-4.4-4.5-.6-.5-1-1.1-1.3-1.6m-1.9-1.8c.5 1.5 1.3 2.8 2.2 4.1 1.3 1.8 2.9 3.3 4.6 4.7.8.7 1.6 1.3 2.5 2 .3-2 .3-4 .1-6 0 0-.1-.1 0-.2-.5-.9-1.3-1.4-2.1-1.8-1.7-.8-3.4-1.4-5.1-2.1-.8-.2-1.5-.5-2.2-.7z"/><path d="m269 73.3s-.1-.1 0-.2c.1.1.1.1 0 .2z" fill="#fff"/><path d="m269 73.1v.2c.1-.1.1-.1 0-.2z"/><path d="m141.9 93.7c-4.3-3.6-6.9-11.7-5.6-18.1 1.8-8.7 8.5-15.3 17.2-16.7.9-.1 1.8-.2 2.7-.2 5.4 0 11.3 2.2 13.8 5-2.6-.7-5-1.1-7.4-1.1-6.2 0-11.6 2.4-16.1 7.2-6 6.5-7.6 14.6-4.6 23.9z" fill="#fff"/><path d="m156.3 59.2c4.4 0 9.1 1.5 12 3.5-1.9-.4-3.8-.6-5.5-.6-6.3 0-11.8 2.5-16.5 7.4-5.8 6.2-7.6 13.7-5.4 22.4-3.3-3.9-5.1-10.8-4.1-16.2 1.7-8.5 8.3-15 16.8-16.3.8-.1 1.7-.2 2.7-.2m0-1c-1 0-1.9.1-2.8.2-9 1.5-15.8 8.1-17.6 17.1-1.4 6.9 1.9 16.4 7.1 19.5-3.4-9.3-2.6-17.7 4.1-24.8 4.6-4.8 9.9-7.1 15.8-7.1 2.8 0 5.7.5 8.7 1.5-2.2-3.7-9.2-6.4-15.3-6.4z"/><path d="m159.9 91.5c-2.7 0-5.6-.5-9.4-1.5-1.9-.5-3.7-1.3-5.4-2.1-.6-.3-1.3-.6-1.9-.9-.7-.3-.8-.7-.7-1.5 0-.4 0-.8-.1-1.3-.1-.9-.1-1.5.3-1.7h.1c.3 0 .8.4 1.2.7.3.3.7.6 1 .7 5 2.9 9.8 4.2 14.7 4.2 1.6 0 3.2-.2 4.8-.5 4.8-.9 7.8-4 8.5-8.4.5 1.9.4 3.8-.2 5.5-.9 2.3-2.7 4.1-5.1 5.2s-5 1.6-7.8 1.6z" fill="#fff"/><path d="m172.8 81.9c0 .9-.2 1.8-.5 2.7-.8 2.2-2.5 3.9-4.8 4.9-2.4 1-4.9 1.5-7.6 1.5s-5.5-.5-9.2-1.5c-1.8-.5-3.6-1.3-5.4-2.1-.7-.3-1.3-.6-2-.9-.3-.1-.5-.2-.4-1 0-.5 0-.9-.1-1.4 0-.4-.1-1 0-1.2.2.1.6.4.8.6.3.3.7.6 1.1.8 5.1 2.9 10 4.3 14.9 4.3 1.6 0 3.2-.2 4.8-.5 4.2-.7 7.1-2.9 8.4-6.2m-.1-5c.2 6.4-3.9 9.5-8.3 10.3-1.6.3-3.1.5-4.7.5-5.1 0-9.9-1.6-14.4-4.2-.8-.5-1.7-1.6-2.4-1.6-.1 0-.3 0-.4.1-1.1.6-.4 2.2-.5 3.4-.1.9 0 1.6 1 2 2.4 1.1 4.8 2.3 7.4 3 3.2.9 6.3 1.5 9.5 1.5 2.7 0 5.3-.5 8-1.6 5.3-2.2 7.5-7.8 4.8-13.4z"/><path d="m133.8 79.9c-3.1-3.7-5.3-7.1-5.3-11.5-.1-3.7 1.7-6.4 5.3-8.3 1.7-.9 3.4-1.3 5.1-1.4-1.3.6-2.6 1.4-3.6 2.5-2.7 3-3.2 6.7-1.5 11 .4 1.1.7 2.1.4 3.3-.3 1.6-.5 3.1-.4 4.4z" fill="#fff"/><path d="m136.4 59.6c-.5.4-1 .8-1.4 1.2-2.9 3.1-3.4 7-1.6 11.5.4 1 .6 1.9.4 3-.3 1.1-.4 2.1-.5 3-2.6-3.2-4.2-6.3-4.3-10.1-.1-3.5 1.6-6 5.1-7.8.8-.2 1.5-.5 2.3-.8m3-1.4c-2.1 0-4 .6-5.8 1.5-3.5 1.8-5.7 4.5-5.6 8.7.1 4.8 2.6 8.4 5.5 11.8.1.2.3.3.5.3.4-.1.4-.4.3-.7-.1-1.4.1-2.9.4-4.2s.1-2.4-.4-3.6c-1.5-3.7-1.5-7.3 1.4-10.4 1.4-1.6 3.3-2.4 5.6-3.2-.7-.1-1.3-.2-1.9-.2z"/><path d="m166.2 74.6c-.4-.8-1-1.3-1.7-1.7.7-.3 1.4-.8 1.8-1.6.4.7.9 1.2 1.6 1.6-.8.4-1.4 1-1.7 1.7z" fill="#fff"/><path d="m166.2 72.2c.2.3.4.5.7.7-.3.2-.5.5-.7.7-.2-.3-.5-.5-.8-.8.3-.1.6-.3.8-.6m0-2.6c-.1 2.2-1.7 2.9-3.4 3.4 2 .2 3 1.3 3.4 3.3.3-2 1.4-3 3.3-3.4-1.9-.3-3-1.3-3.3-3.3z"/><path d="m159.4 78.9c-.2-.3-.5-.6-.8-.8.4-.2.6-.5.8-.9.3.4.6.6 1 .8-.4.3-.7.5-1 .9z" fill="#fff"/><path d="m159.5 78.1c0 .1 0 .1-.1.1l.1-.1c-.1 0-.1 0 0 0m0-2c-.5.8-.7 1.7-1.7 1.8-.4 0 .1.4.1.4.8.4 1.3 1.1 1.7 2-.1-1.5 1.1-1.7 2.3-2.2-1.3-.4-2.2-.7-2.4-2z"/><g fill="#fff" font-family="'KotoriRose-Regular'" stroke="#000" stroke-miterlimit="10"><text font-size="40" transform="translate(192.38 92.092)">+</text><text font-size="36" transform="translate(100.77 141.98)">Luna Orbit</text></g></svg>